<svg width="144" height="20" viewBox="0 0 144 20" fill="none" xmlns="http://www.w3.org/2000/svg">
<path d="M6.66659 15C7.8499 14.9998 8.99912 14.6036 9.93125 13.8747L12.8619 16.8053L13.8046 15.8627L10.8739 12.932C11.6033 11.9998 11.9996 10.8503 11.9999 9.66666C11.9999 6.726 9.60725 4.33333 6.66659 4.33333C3.72592 4.33333 1.33325 6.726 1.33325 9.66666C1.33325 12.6073 3.72592 15 6.66659 15ZM6.66659 5.66666C8.87259 5.66666 10.6666 7.46066 10.6666 9.66666C10.6666 11.8727 8.87259 13.6667 6.66659 13.6667C4.46059 13.6667 2.66659 11.8727 2.66659 9.66666C2.66659 7.46066 4.46059 5.66666 6.66659 5.66666Z" fill="black"/>
<path d="M47.1919 16H46.4448V5.99512H40.2632V16H39.5161V5.29199H47.1919V16ZM56.6255 12.0083C56.6255 13.3071 56.3105 14.3228 55.6807 15.0552C55.0508 15.7827 54.1816 16.1465 53.0732 16.1465C52.375 16.1465 51.7598 15.978 51.2275 15.6411C50.6953 15.3042 50.2876 14.8208 50.0044 14.1909C49.7212 13.561 49.5796 12.8335 49.5796 12.0083C49.5796 10.7095 49.8945 9.69873 50.5244 8.97607C51.1543 8.24854 52.0186 7.88477 53.1172 7.88477C54.2109 7.88477 55.0679 8.25342 55.688 8.99072C56.313 9.72314 56.6255 10.729 56.6255 12.0083ZM50.3413 12.0083C50.3413 13.1021 50.5806 13.9565 51.0591 14.5718C51.5425 15.1821 52.2236 15.4873 53.1025 15.4873C53.9814 15.4873 54.6602 15.1821 55.1387 14.5718C55.6221 13.9565 55.8638 13.1021 55.8638 12.0083C55.8638 10.9097 55.6196 10.0576 55.1313 9.45215C54.6479 8.84668 53.9668 8.54395 53.0879 8.54395C52.209 8.54395 51.5303 8.84668 51.0518 9.45215C50.5781 10.0527 50.3413 10.9048 50.3413 12.0083ZM59.5186 8.03857V13.7954L59.4746 15.2969L64.1987 8.03857H65.1655V16H64.4697V10.2798L64.499 8.7417L59.7749 16H58.8301V8.03857H59.5186ZM71.0176 16.1465C69.8799 16.1465 68.9888 15.7876 68.3442 15.0698C67.6997 14.3521 67.3774 13.3511 67.3774 12.0669C67.3774 10.7485 67.7119 9.72314 68.3809 8.99072C69.0498 8.25342 69.9653 7.88477 71.1274 7.88477C71.8159 7.88477 72.4751 8.00439 73.105 8.24365L72.9072 8.88818C72.2188 8.65869 71.6206 8.54395 71.1128 8.54395C70.1362 8.54395 69.3965 8.84668 68.8936 9.45215C68.3906 10.0527 68.1392 10.9194 68.1392 12.0522C68.1392 13.1265 68.3906 13.9688 68.8936 14.5791C69.3965 15.1846 70.0996 15.4873 71.0029 15.4873C71.7256 15.4873 72.397 15.3579 73.0171 15.0991V15.7729C72.5093 16.022 71.8428 16.1465 71.0176 16.1465ZM79.2939 8.03857H80.1948L76.6279 11.8911L80.4512 16H79.4771L75.7124 11.9644V16H74.9727V8.03857H75.7124V11.9058L79.2939 8.03857ZM86.479 16H85.7539V8.03857H92.104V16H91.3789V8.72705H86.479V16ZM101.362 12.0083C101.362 13.3071 101.047 14.3228 100.417 15.0552C99.7871 15.7827 98.918 16.1465 97.8096 16.1465C97.1113 16.1465 96.4961 15.978 95.9639 15.6411C95.4316 15.3042 95.0239 14.8208 94.7407 14.1909C94.4575 13.561 94.3159 12.8335 94.3159 12.0083C94.3159 10.7095 94.6309 9.69873 95.2607 8.97607C95.8906 8.24854 96.7549 7.88477 97.8535 7.88477C98.9473 7.88477 99.8042 8.25342 100.424 8.99072C101.049 9.72314 101.362 10.729 101.362 12.0083ZM95.0776 12.0083C95.0776 13.1021 95.3169 13.9565 95.7954 14.5718C96.2788 15.1821 96.96 15.4873 97.8389 15.4873C98.7178 15.4873 99.3965 15.1821 99.875 14.5718C100.358 13.9565 100.6 13.1021 100.6 12.0083C100.6 10.9097 100.356 10.0576 99.8677 9.45215C99.3843 8.84668 98.7031 8.54395 97.8242 8.54395C96.9453 8.54395 96.2666 8.84668 95.7881 9.45215C95.3145 10.0527 95.0776 10.9048 95.0776 12.0083ZM110.642 16.1465C109.504 16.1465 108.613 15.7876 107.968 15.0698C107.324 14.3521 107.001 13.3511 107.001 12.0669C107.001 10.7485 107.336 9.72314 108.005 8.99072C108.674 8.25342 109.589 7.88477 110.751 7.88477C111.44 7.88477 112.099 8.00439 112.729 8.24365L112.531 8.88818C111.843 8.65869 111.245 8.54395 110.737 8.54395C109.76 8.54395 109.021 8.84668 108.518 9.45215C108.015 10.0527 107.763 10.9194 107.763 12.0522C107.763 13.1265 108.015 13.9688 108.518 14.5791C109.021 15.1846 109.724 15.4873 110.627 15.4873C111.35 15.4873 112.021 15.3579 112.641 15.0991V15.7729C112.133 16.022 111.467 16.1465 110.642 16.1465ZM119.431 16L119.248 14.7402H119.189C118.789 15.2529 118.376 15.6167 117.951 15.8315C117.531 16.0415 117.033 16.1465 116.457 16.1465C115.676 16.1465 115.068 15.9463 114.633 15.5459C114.199 15.1455 113.981 14.5913 113.981 13.8833C113.981 13.1069 114.304 12.5039 114.948 12.0742C115.598 11.6445 116.535 11.4175 117.761 11.3931L119.277 11.3491V10.8218C119.277 10.0649 119.123 9.49365 118.815 9.10791C118.508 8.72217 118.012 8.5293 117.329 8.5293C116.591 8.5293 115.827 8.73438 115.036 9.14453L114.765 8.51465C115.639 8.10449 116.503 7.89941 117.358 7.89941C118.232 7.89941 118.884 8.12646 119.313 8.58057C119.748 9.03467 119.965 9.74268 119.965 10.7046V16H119.431ZM116.501 15.4873C117.351 15.4873 118.02 15.2456 118.508 14.7622C119.001 14.2739 119.248 13.5977 119.248 12.7334V11.9497L117.856 12.0083C116.738 12.062 115.939 12.2378 115.461 12.5356C114.987 12.8286 114.75 13.2876 114.75 13.9126C114.75 14.4106 114.902 14.7988 115.205 15.0771C115.512 15.3506 115.944 15.4873 116.501 15.4873ZM123.239 8.03857V13.7954L123.195 15.2969L127.919 8.03857H128.886V16H128.19V10.2798L128.22 8.7417L123.496 16H122.551V8.03857H123.239ZM125.722 6.91064C124.995 6.91064 124.44 6.74951 124.06 6.42725C123.679 6.1001 123.457 5.5752 123.393 4.85254H124.038C124.111 5.38965 124.277 5.77051 124.536 5.99512C124.794 6.21484 125.195 6.32471 125.737 6.32471C126.274 6.32471 126.672 6.20996 126.931 5.98047C127.194 5.75098 127.355 5.375 127.414 4.85254H128.059C127.956 6.22461 127.177 6.91064 125.722 6.91064ZM136.613 8.66846H133.962V16H133.244V8.66846H130.527V8.03857H136.613V8.66846ZM136.921 8.03857H137.668L139.353 12.5063C139.865 13.8784 140.19 14.8037 140.327 15.2822H140.371C140.576 14.6523 140.91 13.7124 141.374 12.4624L143.059 8.03857H143.806L140.239 17.2891C139.951 18.041 139.709 18.5488 139.514 18.8125C139.318 19.0762 139.089 19.2739 138.825 19.4058C138.566 19.5376 138.251 19.6035 137.88 19.6035C137.602 19.6035 137.292 19.5522 136.95 19.4497V18.8198C137.233 18.8979 137.539 18.937 137.866 18.937C138.115 18.937 138.334 18.8784 138.525 18.7612C138.715 18.644 138.886 18.4609 139.038 18.2119C139.194 17.9678 139.372 17.5771 139.572 17.04C139.777 16.5078 139.909 16.1611 139.968 16L136.921 8.03857Z" fill="black" fill-opacity="0.3"/>
</svg>
